<svg width="20" height="20" viewBox="0 0 20 20" fill="none" xmlns="http://www.w3.org/2000/svg">
<path d="M3.63627 15.4053L3.63456 15.4037C3.33037 15.1171 3.16216 14.6634 3.22181 14.1322C3.22183 14.1321 3.22184 14.132 3.22185 14.1318L3.53006 11.4329C3.53007 11.4329 3.53007 11.4328 3.53008 11.4328C3.53008 11.4328 3.53009 11.4327 3.53009 11.4327C3.55171 11.2447 3.62401 11.0013 3.7368 10.7584C3.84998 10.5147 3.98758 10.3067 4.11592 10.1754L4.11597 10.1755L4.12177 10.1693L10.9634 2.92764L10.9634 2.92763C11.7634 2.08082 12.5192 1.71029 13.2266 1.69032C13.934 1.67035 14.7097 1.99768 15.5566 2.79773C16.4034 3.59771 16.774 4.35353 16.7939 5.06088C16.8139 5.76829 16.4866 6.54403 15.6865 7.39091L8.84487 14.6326L8.84487 14.6326L8.84279 14.6348C8.56757 14.9297 8.01737 15.2256 7.6191 15.2909L7.6191 15.2908L7.6158 15.2914L4.95911 15.7452C4.89203 15.7495 4.8422 15.7538 4.79963 15.7576C4.73363 15.7633 4.68506 15.7676 4.61666 15.7676C4.22081 15.7676 3.87413 15.6316 3.63627 15.4053ZM11.1448 3.08262L11.1447 3.08277L4.30459 10.3311C4.3043 10.3314 4.30401 10.3317 4.30372 10.332C4.16612 10.4768 4.04962 10.6807 3.96773 10.8562C3.88476 11.034 3.80602 11.25 3.77968 11.441L3.77954 11.4409L3.77822 11.4525L3.47029 14.1491C3.47021 14.1497 3.47014 14.1504 3.47006 14.151C3.42444 14.531 3.50844 14.9328 3.80668 15.2144C4.10741 15.4985 4.50993 15.5506 4.87489 15.4953L4.8749 15.4954L4.88417 15.4938L7.56751 15.0355L7.56828 15.0353C7.76552 15.0013 7.98057 14.9088 8.15248 14.8163C8.32469 14.7236 8.51835 14.5962 8.65373 14.4541L8.6551 14.4526L15.4968 7.21098L15.4977 7.20994C16.0294 6.64404 16.49 6.00381 16.5355 5.24985C16.5827 4.46907 16.1808 3.72669 15.3778 2.97189C14.6664 2.28773 13.9739 1.92594 13.275 1.92594C12.4134 1.92594 11.7283 2.4648 11.1448 3.08262Z" fill="#1D1B20" stroke="#1D1B20"/>
<path d="M14.4763 8.37999L14.4767 8.38003C14.537 8.38592 14.5886 8.44167 14.5864 8.50882C14.5735 8.57445 14.5115 8.62406 14.4502 8.62406H14.4501H14.45H14.4499H14.4498H14.4497H14.4496H14.4495H14.4494H14.4493H14.4492H14.4491H14.449H14.4489H14.4488H14.4487H14.4486H14.4485H14.4484H14.4483H14.4482H14.4481H14.448H14.4479H14.4478H14.4477H14.4476H14.4475H14.4474H14.4473H14.4472H14.4471H14.447H14.4469H14.4468H14.4467H14.4466H14.4465H14.4464H14.4463H14.4461H14.446H14.4459H14.4458H14.4457H14.4456H14.4455H14.4454H14.4453H14.4452H14.4451H14.445H14.4449H14.4448H14.4447H14.4446H14.4445H14.4443H14.4442H14.4441H14.444H14.4439H14.4438H14.4437H14.4436H14.4435H14.4434H14.4433H14.4432H14.443H14.4429H14.4428H14.4427H14.4426H14.4425H14.4424H14.4423H14.4422H14.4421H14.442H14.4418H14.4417H14.4416H14.4415H14.4414H14.4413H14.4412H14.4411H14.441H14.4408H14.4407H14.4406H14.4405H14.4404H14.4403H14.4402H14.4401H14.4399H14.4398H14.4397H14.4396H14.4395H14.4394H14.4393H14.4392H14.439H14.4389H14.4388H14.4387H14.4386H14.4385H14.4384H14.4382H14.4381H14.438H14.4379H14.4378H14.4377H14.4376H14.4374H14.4373H14.4372H14.4371H14.437H14.4369H14.4367H14.4366H14.4365H14.4364H14.4363H14.4362H14.436H14.4359H14.4358H14.4357H14.4356H14.4355H14.4354H14.4352H14.4351H14.435H14.4349H14.4348H14.4346H14.4345H14.4344H14.4343H14.4342H14.4341H14.4339H14.4338H14.4337H14.4336H14.4335H14.4334H14.4332H14.4331H14.433H14.4329H14.4328H14.4326H14.4325H14.4324H14.4323H14.4322H14.432H14.4319H14.4318H14.4317H14.4316H14.4315H14.4313H14.4312H14.4311H14.431H14.4309H14.4307H14.4306H14.4305H14.4304H14.4303H14.4301H14.43H14.4299H14.4298H14.4297H14.4295H14.4294H14.4293H14.4292H14.4291H14.4289H14.4288H14.4287H14.4286H14.4285H14.4283H14.4282H14.4281H14.428H14.4278H14.4277H14.4276H14.4275H14.4274H14.4272H14.4271H14.427H14.4269H14.4268H14.4266H14.4265H14.4264H14.4263H14.4262H14.426H14.4259H14.4258H14.4257H14.4255H14.4254H14.4253H14.4252H14.4251H14.4249H14.4248H14.4247H14.4246H14.4244H14.4243H14.4242H14.4241H14.424H14.4238H14.4237H14.4236H14.4235H14.4234H14.4232H14.4231H14.423H14.4229H14.4227H14.4226H14.4225H14.4224H14.4223H14.4221H14.422H14.4219H14.4218H14.4216H14.4215H14.4214H14.4213H14.4212H14.421H14.4209H14.4208H14.4207H14.4205H14.4204H14.4203H14.4202H14.4201H14.4199H14.4198H14.4197H14.4196H14.4194H14.4193H14.4192H14.4191H14.419H14.4188H14.4187H14.4186H14.4185H14.4183H14.4182H14.4181H14.418H14.4179H14.4177H14.4176H14.4175H14.4174H14.4173H14.4172C12.0556 8.37854 10.1596 6.58173 9.79474 4.23367C9.78574 4.16737 9.82895 4.10051 9.9033 4.08475C9.96931 4.07806 10.0348 4.12268 10.0486 4.19779C10.4022 6.43612 12.2166 8.15773 14.4763 8.37999Z" fill="#1D1B20" stroke="#1D1B20"/>
<path d="M17.5 18.959H2.5C2.15833 18.959 1.875 18.6757 1.875 18.334C1.875 17.9923 2.15833 17.709 2.5 17.709H17.5C17.8417 17.709 18.125 17.9923 18.125 18.334C18.125 18.6757 17.8417 18.959 17.5 18.959Z" fill="#1D1B20"/>
</svg>
