<svg width="20" height="20" viewBox="0 0 20 20" fill="none" xmlns="http://www.w3.org/2000/svg">
<path d="M12.7167 18.5422H7.28332C3.19165 18.5422 1.44165 16.7922 1.44165 12.7005V12.5922C1.44165 8.89222 2.89998 7.10888 6.16665 6.80055C6.49998 6.77555 6.81665 7.02555 6.84998 7.36722C6.88332 7.70888 6.63332 8.01722 6.28332 8.05055C3.66665 8.29222 2.69165 9.52555 2.69165 12.6005V12.7089C2.69165 16.1005 3.89165 17.3005 7.28332 17.3005H12.7167C16.1083 17.3005 17.3083 16.1005 17.3083 12.7089V12.6005C17.3083 9.50888 16.3166 8.27555 13.65 8.05055C13.3083 8.01722 13.05 7.71722 13.0833 7.37555C13.1166 7.03388 13.4083 6.77555 13.7583 6.80888C17.075 7.09222 18.5583 8.88388 18.5583 12.6089V12.7172C18.5583 16.7922 16.8083 18.5422 12.7167 18.5422Z" fill="#605D64"/>
<path d="M10 13.1259C9.65833 13.1259 9.375 12.8426 9.375 12.5009V3.01758C9.375 2.67591 9.65833 2.39258 10 2.39258C10.3417 2.39258 10.625 2.67591 10.625 3.01758V12.5009C10.625 12.8426 10.3417 13.1259 10 13.1259Z" fill="#605D64"/>
<path d="M12.7917 5.50052C12.6334 5.50052 12.475 5.44219 12.35 5.31719L10 2.96719L7.65003 5.31719C7.40837 5.55885 7.00837 5.55885 6.7667 5.31719C6.52503 5.07552 6.52503 4.67552 6.7667 4.43385L9.55837 1.64219C9.80003 1.40052 10.2 1.40052 10.4417 1.64219L13.2334 4.43385C13.475 4.67552 13.475 5.07552 13.2334 5.31719C13.1167 5.44219 12.95 5.50052 12.7917 5.50052Z" fill="#605D64"/>
</svg>
