<svg width="22" height="26" viewBox="0 0 22 26" fill="none" xmlns="http://www.w3.org/2000/svg">
<path d="M3.18656 25.1131C2.09216 25.1131 1.23242 24.2534 1.23242 23.159V2.8411C1.23242 1.7467 2.09216 0.886963 3.18656 0.886963H15.2207C15.6506 0.886963 16.041 1.04376 16.3151 1.3563L20.3002 5.34136C20.6127 5.6539 20.7695 6.0443 20.7695 6.43576V23.159C20.7695 24.2534 19.9098 25.1131 18.8154 25.1131H3.18656Z" fill="white"/>
<path d="M15.2205 1.27845C15.533 1.27845 15.8455 1.39578 16.0407 1.63045L20.0258 5.61551C20.2605 5.85018 20.3778 6.12325 20.3778 6.43578V23.159C20.3778 24.0187 19.6749 24.7216 18.8151 24.7216H3.18633C2.3266 24.7216 1.62366 24.0187 1.62366 23.159V2.84111C1.62366 1.98138 2.3266 1.27845 3.18633 1.27845H15.2205ZM15.2205 0.496582H3.18633C1.89673 0.496582 0.841797 1.55152 0.841797 2.84111V23.159C0.841797 24.4486 1.89673 25.5035 3.18633 25.5035H18.8151C20.1047 25.5035 21.1597 24.4486 21.1597 23.159V6.43578C21.1597 5.92805 20.9645 5.42031 20.5741 5.06832L16.589 1.08325C16.1975 0.691782 15.7282 0.496582 15.2205 0.496582Z" fill="#FF2116"/>
<path d="M15.7963 11.7692C15.6598 11.623 15.4347 11.5057 15.1414 11.4246C14.848 11.3446 14.4864 11.2998 14.0768 11.2998C13.8422 11.2998 13.5936 11.3148 13.3323 11.3414C13.071 11.3681 12.7979 11.4076 12.5142 11.4566C12.3478 11.2998 12.1824 11.1292 12.0182 10.9436C11.855 10.758 11.6939 10.5574 11.5371 10.343C11.4294 10.1862 11.3227 10.0305 11.2203 9.8737C11.1179 9.7169 11.0198 9.56117 10.9323 9.40437C11.0784 8.9457 11.2054 8.49557 11.296 8.0785C11.3867 7.66037 11.44 7.2753 11.44 6.94357C11.44 6.6993 11.4006 6.37183 11.2694 6.10623C11.1371 5.83957 10.9131 5.63477 10.5419 5.63477C10.4438 5.63477 10.3414 5.66357 10.2507 5.71477C10.16 5.76597 10.0822 5.83957 10.0331 5.92703C9.88698 6.1905 9.84325 6.62997 9.90618 7.15797C9.97018 7.68597 10.1408 8.30037 10.4235 8.91583C10.3254 9.20917 10.2176 9.50677 10.1003 9.81717C9.98298 10.1276 9.85605 10.4497 9.71952 10.7921C9.60218 11.0758 9.47525 11.3585 9.34085 11.6369C9.20645 11.9153 9.06458 12.1894 8.91845 12.4518C8.11738 12.774 7.45818 13.111 6.98672 13.4406C6.51525 13.7702 6.23258 14.0924 6.18351 14.3857C6.16431 14.4838 6.16858 14.5756 6.19845 14.6641C6.22725 14.7516 6.28165 14.8348 6.35951 14.9126C6.40858 14.9521 6.48112 15.0054 6.57925 15.0492C6.67738 15.0929 6.79898 15.127 6.94618 15.127C7.40485 15.127 7.89338 14.79 8.36271 14.279C8.83205 13.7692 9.28111 13.0854 9.66191 12.391C9.87631 12.3132 10.096 12.2396 10.3211 12.1713C10.5462 12.103 10.7755 12.0401 11.0102 11.9814C11.264 11.9132 11.5083 11.8545 11.7483 11.8033C11.9872 11.7521 12.2219 11.7084 12.4566 11.6689C13.0134 12.1766 13.536 12.455 13.983 12.6065C14.4299 12.758 14.8011 12.7825 15.055 12.7825C15.3579 12.7825 15.5499 12.7356 15.6779 12.6609C15.8059 12.5862 15.8688 12.4838 15.9147 12.3729C15.9552 12.2396 15.9552 12.118 15.9307 12.0145C15.9051 11.9132 15.855 11.8278 15.7963 11.7692ZM10.1899 6.02517C10.2294 5.9569 10.2774 5.90357 10.3339 5.86623C10.3904 5.82997 10.4534 5.8097 10.5216 5.8097C10.6582 5.8097 10.7659 5.86837 10.8384 5.98357C10.912 6.09877 10.9504 6.26943 10.9504 6.49343C10.9504 6.7281 10.911 7.04063 10.8384 7.4065C10.7648 7.77343 10.6582 8.19263 10.5216 8.6417C10.2486 8.01663 10.111 7.45557 10.0704 7.0033C10.0288 6.55317 10.0822 6.21077 10.1899 6.02517ZM6.36058 14.407C6.40965 14.1628 6.66352 13.8844 7.07845 13.5942C7.49338 13.303 8.07045 13.0012 8.76378 12.7078C8.37338 13.3724 7.98192 13.9089 7.63098 14.2801C7.27898 14.6513 6.96645 14.8561 6.73178 14.8561C6.68272 14.8561 6.63898 14.8465 6.59738 14.8294C6.55578 14.8124 6.51738 14.7878 6.47791 14.759C6.42885 14.71 6.39471 14.6513 6.37551 14.5905C6.35525 14.5286 6.35098 14.4657 6.36058 14.407ZM12.2806 11.4961C12.0758 11.5356 11.8603 11.5793 11.6406 11.6273C11.4208 11.6764 11.1968 11.7297 10.9718 11.7884C10.7766 11.8374 10.5814 11.8908 10.3883 11.9494C10.1952 12.0081 10.0054 12.071 9.81978 12.1393C9.92751 11.9345 10.0299 11.734 10.1227 11.5388C10.2155 11.3436 10.2987 11.1526 10.367 10.967C10.4544 10.7526 10.543 10.5329 10.6283 10.31C10.7136 10.0881 10.7968 9.86303 10.8747 9.63797C10.9526 9.7745 11.0358 9.91103 11.1243 10.0486C11.2118 10.1852 11.3046 10.3217 11.4027 10.4593C11.5392 10.6449 11.6811 10.8262 11.8283 10.999C11.9723 11.1729 12.1238 11.3393 12.2806 11.4961ZM12.671 11.6134C13.1403 11.526 13.5798 11.4865 13.9478 11.479C14.3168 11.4716 14.6144 11.4961 14.8 11.5356C14.976 11.575 15.1126 11.6529 15.1979 11.7606C15.2832 11.8684 15.3174 12.0049 15.2886 12.1606C15.2598 12.327 15.1467 12.4486 14.9878 12.5169C14.8288 12.5852 14.624 12.6001 14.4086 12.551C14.0566 12.4636 13.7398 12.326 13.4518 12.1628C13.1638 11.9996 12.9056 11.8086 12.671 11.6134Z" fill="#FF2116"/>
<path d="M7.01864 18.437C7.01864 18.4316 7.01864 18.4263 7.01971 18.422C7.02078 18.4178 7.02184 18.4135 7.02398 18.4103C7.02611 18.4071 7.02931 18.4039 7.03464 18.4028C7.03891 18.4007 7.04424 18.3996 7.05171 18.3996C7.10504 18.3964 7.16371 18.3943 7.22878 18.3922C7.29278 18.39 7.36211 18.3879 7.43464 18.3868C7.50718 18.3858 7.58398 18.3847 7.66291 18.3836C7.74184 18.3826 7.82184 18.3826 7.90398 18.3826C8.13331 18.3826 8.33064 18.4135 8.49704 18.4711C8.66344 18.5287 8.79998 18.6119 8.90664 18.7143C9.01438 18.8178 9.09224 18.9404 9.14451 19.078C9.19571 19.2156 9.22131 19.3682 9.22131 19.5292C9.22131 19.7394 9.18291 19.9196 9.11465 20.0722C9.04638 20.2236 8.94718 20.3484 8.82451 20.4466C8.70184 20.5447 8.55571 20.6162 8.39358 20.6631C8.23144 20.71 8.05331 20.7324 7.86558 20.7324C7.83358 20.7324 7.80798 20.7324 7.78451 20.7314C7.76104 20.7314 7.74184 20.7303 7.72264 20.7292C7.70344 20.7282 7.68638 20.7282 7.66824 20.7271C7.65011 20.726 7.63091 20.726 7.60851 20.726V21.045V21.3639V21.6828V22.0018C7.60851 22.0092 7.60744 22.0146 7.60638 22.0188C7.60531 22.0231 7.60318 22.0274 7.59998 22.0306C7.59678 22.0338 7.59251 22.0359 7.58824 22.037C7.58398 22.038 7.57758 22.0391 7.57118 22.0391H7.44211H7.31304H7.18398H7.05491C7.04851 22.0391 7.04211 22.038 7.03784 22.037C7.03358 22.0359 7.02931 22.0338 7.02611 22.0306C7.02291 22.0274 7.02078 22.0231 7.01971 22.0188C7.01864 22.0135 7.01758 22.0082 7.01758 22.0018V21.1111V20.2204V19.3298C7.01864 19.3276 7.01864 18.437 7.01864 18.437ZM7.60851 20.1959C7.62771 20.197 7.64584 20.198 7.66398 20.1991C7.68211 20.2002 7.70131 20.2002 7.72158 20.2002C7.74184 20.2002 7.76424 20.2002 7.78984 20.2012C7.81544 20.2012 7.84318 20.2012 7.87624 20.2012C7.97331 20.2012 8.06824 20.1927 8.15678 20.1714C8.24531 20.15 8.32638 20.117 8.39571 20.0668C8.46504 20.0167 8.52264 19.9506 8.56211 19.8642C8.60158 19.7778 8.62504 19.6711 8.62504 19.5399C8.62504 19.4343 8.60904 19.3426 8.57811 19.2636C8.54718 19.1847 8.50131 19.1186 8.44158 19.0652C8.38184 19.013 8.30824 18.9724 8.22184 18.9458C8.13544 18.9191 8.03624 18.9063 7.92531 18.9063C7.89224 18.9063 7.86024 18.9063 7.82931 18.9074C7.79838 18.9084 7.76851 18.9084 7.74078 18.9095C7.71304 18.9106 7.68744 18.9116 7.66504 18.9127C7.64264 18.9138 7.62344 18.9159 7.60851 18.917V19.237V19.557V19.877V20.1959Z" fill="#2C2C2C"/>
<path d="M9.81073 18.4421C9.81073 18.4347 9.81073 18.4293 9.81179 18.4251C9.81286 18.4197 9.81499 18.4165 9.81713 18.4123C9.82033 18.4091 9.82353 18.4059 9.82886 18.4037C9.83419 18.4016 9.84059 18.3995 9.84913 18.3984C9.88113 18.3973 9.92699 18.3952 9.98353 18.3931C10.0411 18.3909 10.1094 18.3899 10.1851 18.3877C10.2609 18.3856 10.3451 18.3845 10.4337 18.3835C10.5211 18.3824 10.6139 18.3813 10.7067 18.3813C10.9841 18.3813 11.2262 18.4261 11.4342 18.5093C11.6422 18.5925 11.815 18.7152 11.9526 18.8699C12.0913 19.0245 12.1947 19.2133 12.2641 19.4277C12.3334 19.6421 12.3675 19.8832 12.3675 20.1467C12.3675 20.5115 12.3078 20.8133 12.2065 21.0597C12.1051 21.3061 11.9622 21.4981 11.7969 21.6453C11.6315 21.7925 11.4427 21.8928 11.2486 21.9568C11.0555 22.0208 10.8571 22.0485 10.6726 22.0485C10.6033 22.0485 10.5254 22.0485 10.4465 22.0475C10.3675 22.0475 10.2854 22.0464 10.2086 22.0453C10.1307 22.0443 10.0582 22.0432 9.99526 22.0421C9.93233 22.0411 9.87899 22.0389 9.84273 22.0379C9.83739 22.0379 9.83206 22.0368 9.82779 22.0347C9.82353 22.0325 9.82033 22.0304 9.81713 22.0261C9.81393 22.0219 9.81286 22.0176 9.81073 22.0123C9.80966 22.0069 9.80859 22.0005 9.80859 21.9941V21.1056V20.2171V19.3285L9.81073 18.4421ZM10.407 21.5131C10.4305 21.5141 10.4529 21.5163 10.4753 21.5173C10.4977 21.5184 10.5201 21.5195 10.5425 21.5205C10.5649 21.5216 10.5873 21.5227 10.6118 21.5227C10.6353 21.5227 10.6598 21.5237 10.6865 21.5237C10.8401 21.5237 10.983 21.4971 11.111 21.4416C11.2401 21.3861 11.3542 21.304 11.4491 21.192C11.5441 21.08 11.6209 20.9392 11.6731 20.7675C11.7254 20.5968 11.7553 20.3952 11.7563 20.1627C11.7574 19.9365 11.7297 19.7435 11.6774 19.5835C11.6251 19.4235 11.5483 19.2944 11.4534 19.1941C11.3585 19.0939 11.2454 19.0213 11.1185 18.9744C10.9926 18.9275 10.8529 18.9061 10.7067 18.9061C10.6779 18.9061 10.6513 18.9061 10.6246 18.9072C10.5979 18.9083 10.5734 18.9083 10.5489 18.9093C10.5243 18.9104 10.5009 18.9115 10.4774 18.9125C10.4539 18.9136 10.4305 18.9157 10.407 18.9168V19.5653V20.2139V20.8624C10.407 20.8635 10.407 21.5131 10.407 21.5131Z" fill="#2C2C2C"/>
<path d="M13.6206 21.994C13.6206 22.0026 13.6195 22.009 13.6185 22.0143C13.6174 22.0196 13.6153 22.025 13.6121 22.0282C13.6089 22.0314 13.6046 22.0335 13.6003 22.0356C13.5961 22.0367 13.5897 22.0378 13.5833 22.0378H13.4531H13.323H13.1929H13.0627C13.0563 22.0378 13.0499 22.0367 13.0457 22.0356C13.0414 22.0346 13.0371 22.0314 13.0339 22.0282C13.0307 22.025 13.0286 22.0207 13.0275 22.0143C13.0265 22.009 13.0254 22.0015 13.0254 21.994V21.1034V20.2127V19.322V18.4314C13.0254 18.425 13.0265 18.4186 13.0275 18.4143C13.0286 18.41 13.0307 18.4058 13.0339 18.4026C13.0371 18.3994 13.0414 18.3972 13.0457 18.3962C13.0499 18.3951 13.0563 18.394 13.0627 18.394H13.5171H13.9715H14.4259H14.8803C14.8889 18.394 14.8953 18.3951 14.9006 18.3962C14.9059 18.3972 14.9091 18.3994 14.9123 18.4026C14.9155 18.4058 14.9177 18.41 14.9198 18.4143C14.9219 18.4186 14.923 18.425 14.9241 18.4314L14.9379 18.5466L14.9518 18.6618L14.9657 18.777L14.9795 18.8922C14.9806 18.9007 14.9806 18.9071 14.9795 18.9124C14.9785 18.9178 14.9753 18.9231 14.9721 18.9263C14.9689 18.9295 14.9635 18.9316 14.9571 18.9338C14.9507 18.9348 14.9443 18.9359 14.9358 18.9359H14.6062H14.2777H13.9481H13.6185V19.1951V19.4543V19.7135V19.9727H13.9139H14.2094H14.5049H14.8003C14.8078 19.9727 14.8131 19.9727 14.8174 19.9738C14.8227 19.9748 14.8259 19.977 14.8291 19.9791C14.8323 19.9823 14.8345 19.9855 14.8355 19.9908C14.8366 19.9962 14.8377 20.0026 14.8377 20.0111V20.1263V20.2415V20.3567V20.4719C14.8377 20.4804 14.8366 20.4868 14.8355 20.4922C14.8345 20.4975 14.8323 20.5007 14.8291 20.5039C14.8259 20.5071 14.8217 20.5082 14.8174 20.5092C14.8121 20.5103 14.8067 20.5103 14.8003 20.5103H14.5059H14.2105H13.915H13.6195V20.8815V21.2527V21.6239L13.6206 21.994Z" fill="#2C2C2C"/>
</svg>
