<svg width="21" height="20" viewBox="0 0 21 20" fill="none" xmlns="http://www.w3.org/2000/svg">
<path d="M10.0833 18.1251C5.37496 18.1251 1.54163 14.2917 1.54163 9.58342C1.54163 4.87508 5.37496 1.04175 10.0833 1.04175C14.7916 1.04175 18.625 4.87508 18.625 9.58342C18.625 14.2917 14.7916 18.1251 10.0833 18.1251ZM10.0833 2.29175C6.05829 2.29175 2.79163 5.56675 2.79163 9.58342C2.79163 13.6001 6.05829 16.8751 10.0833 16.8751C14.1083 16.8751 17.375 13.6001 17.375 9.58342C17.375 5.56675 14.1083 2.29175 10.0833 2.29175Z" fill="white"/>
<path d="M18.8333 18.9583C18.675 18.9583 18.5166 18.9 18.3916 18.775L16.725 17.1083C16.4833 16.8666 16.4833 16.4666 16.725 16.225C16.9666 15.9833 17.3666 15.9833 17.6083 16.225L19.275 17.8916C19.5166 18.1333 19.5166 18.5333 19.275 18.775C19.15 18.9 18.9916 18.9583 18.8333 18.9583Z" fill="white"/>
</svg>
