<svg width="20" height="20" viewBox="0 0 20 20" fill="none" xmlns="http://www.w3.org/2000/svg">
<path d="M2.48194 4.85506L2.48217 4.85503L4.18217 4.68837L4.18388 4.6882C8.57181 4.2428 13.0273 4.41511 17.5095 4.85503L17.5098 4.85506C17.5727 4.86119 17.626 4.92138 17.6191 4.9922L17.619 4.99219L17.6182 5.0024C17.614 5.05736 17.5651 5.10742 17.5001 5.10742H17.5H17.4999H17.4998H17.4997H17.4996H17.4995H17.4994H17.4993H17.4992H17.4991H17.499H17.4989H17.4988H17.4987H17.4986H17.4985H17.4984H17.4983H17.4982H17.4981H17.498H17.4979H17.4978H17.4977H17.4976H17.4974H17.4973H17.4972H17.4971H17.497H17.4969H17.4968H17.4967H17.4966H17.4965H17.4964H17.4963H17.4962H17.4961H17.496H17.4959H17.4958H17.4957H17.4956H17.4955H17.4954H17.4953H17.4952H17.495H17.4949H17.4948H17.4947H17.4946H17.4945H17.4944H17.4943H17.4942H17.4941H17.494H17.4939H17.4938H17.4936H17.4935H17.4934H17.4933H17.4932H17.4931H17.493H17.4929H17.4928H17.4927H17.4925H17.4924H17.4923H17.4922H17.4921H17.492H17.4919H17.4918H17.4917H17.4915H17.4914H17.4913H17.4912H17.4911H17.491H17.4909H17.4908H17.4906H17.4905H17.4904H17.4903H17.4902H17.4901H17.49H17.4899H17.4897H17.4896H17.4895H17.4894H17.4893H17.4892H17.489H17.4889H17.4888H17.4887H17.4886H17.4885H17.4884H17.4882H17.4881H17.488H17.4879H17.4878H17.4877H17.4875H17.4874H17.4873H17.4872H17.4871H17.4869H17.4868H17.4867H17.4866H17.4865H17.4864H17.4862H17.4861H17.486H17.4859H17.4858H17.4856H17.4855H17.4854H17.4853H17.4852H17.485H17.4849H17.4848H17.4847H17.4846H17.4844H17.4843H17.4842H17.4841H17.484H17.4838H17.4837H17.4836H17.4835H17.4833H17.4832H17.4831H17.483H17.4829H17.4827H17.4826H17.4825H17.4824H17.4822H17.4821H17.482H17.4819H17.4817H17.4816H17.4815H17.4814H17.4812H17.4811H17.481H17.4809H17.4808H17.4806H17.4805H17.4804H17.4802H17.4801H17.48H17.4799H17.4797H17.4796H17.4795H17.4794H17.4792H17.4791H17.479H17.4789H17.4787H17.4786H17.4785H17.4784H17.4782H17.4781H17.478H17.4778H17.4777H17.4776H17.4775H17.4773H17.4772H17.4771H17.4769H17.4768H17.4767H17.4766H17.4764H17.4763H17.4762H17.476H17.4759H17.4758H17.4757H17.4755H17.4754H17.4753H17.4751H17.475H17.4749H17.4747H17.4746H17.4745H17.4744H17.4742H17.4741H17.474H17.4738H17.4737H17.4736H17.4734H17.4733H17.4732H17.473H17.4729H17.4728H17.4726H17.4725H17.4724H17.4722H17.4721H17.472H17.4718H17.4717H17.4716H17.4714H17.4713H17.4712H17.471H17.4709H17.4708H17.4706H17.4705H17.4704H17.4702H17.4701H17.47H17.4698H17.4697H17.4696H17.4694H17.4693H17.4692H17.469H17.4689H17.4688H17.4686H17.4685H17.4684H17.4682H17.4681H17.468H17.4678H17.4677H17.4675H17.4674H17.4673H17.4671H17.467H17.4669H17.4667H17.4666H17.4665H17.4663H17.4662H17.466H17.4659H17.4658H17.4656H17.4655H17.4654H17.4652H17.4651H17.465H17.4648H17.4647H17.4645H17.4644H17.4643H17.4641H17.464H17.4638H17.4637H17.4636H17.4634H17.4633H17.4632H17.463H17.4629H17.4627H17.4626H17.4625H17.4623H17.4622H17.462H17.4619H17.4618H17.4616H17.4615H17.4614H17.4612H17.4611H17.4609H17.4608H17.4607H17.4605H17.4604H17.4602H17.4601H17.46H17.4598H17.4597H17.4595H17.4594H17.4593H17.4591H17.459H17.4588H17.4587H17.4585H17.4584H17.4583C13.0395 4.66573 8.61203 4.49792 4.21712 4.94322C4.21685 4.94324 4.21658 4.94327 4.21631 4.9433L2.51931 5.10967C2.51916 5.10968 2.51901 5.1097 2.51886 5.10971C2.4387 5.11712 2.37944 5.06305 2.3728 4.99335C2.36549 4.91661 2.41584 4.8615 2.48194 4.85506Z" fill="#1D1B20" stroke="#1D1B20"/>
<path d="M7.0657 4.26594C7.0656 4.26594 7.06551 4.26594 7.06541 4.26594L7.06099 4.26517C7.03187 4.26007 7.0024 4.24243 6.98107 4.21247C6.95997 4.18284 6.95459 4.15233 6.95899 4.12721L6.95957 4.12383L7.1429 3.03216L7.143 3.03155C7.21306 2.61121 7.27999 2.26859 7.48949 2.00975C7.67116 1.7853 8.03594 1.54102 8.90814 1.54102H11.0915C11.9626 1.54102 12.33 1.79242 12.5139 2.02329C12.7255 2.28905 12.7907 2.63594 12.8563 3.03814L12.8563 3.03814L12.8568 3.04111L13.0401 4.12444L13.0403 4.12516C13.046 4.15858 13.0379 4.19158 13.0185 4.21872C12.9991 4.24604 12.9741 4.25969 12.9506 4.26321L12.9506 4.26311L12.9407 4.26481C12.9072 4.27052 12.8742 4.26241 12.8471 4.24308C12.8198 4.22363 12.8061 4.19865 12.8026 4.17518L12.8027 4.17517L12.8011 4.16592L12.6181 3.08462L12.6158 3.0703C12.5891 2.90428 12.5617 2.73339 12.5208 2.58882C12.477 2.43359 12.4031 2.25089 12.2461 2.10017C12.0864 1.94681 11.8938 1.87693 11.7103 1.84175C11.5331 1.80777 11.3264 1.79935 11.0998 1.79935H8.91647C8.69269 1.79935 8.48841 1.80608 8.3144 1.83676C8.13479 1.86844 7.9404 1.93326 7.77792 2.08535C7.6178 2.23522 7.54346 2.41913 7.4994 2.57325C7.45903 2.71447 7.43063 2.88325 7.40265 3.04947C7.40136 3.05718 7.40006 3.06488 7.39876 3.07258L7.20745 4.15391L7.2074 4.1539L7.20625 4.16098C7.19643 4.22157 7.14367 4.26602 7.08314 4.26602L7.0657 4.26594Z" fill="#1D1B20" stroke="#1D1B20"/>
<path d="M12.675 18.9577H7.325C4.41666 18.9577 4.3 17.3493 4.20833 16.0493L3.66666 7.65766C3.64166 7.316 3.90833 7.016 4.25 6.991C4.6 6.97433 4.89166 7.23266 4.91666 7.57433L5.45833 15.966C5.55 17.2327 5.58333 17.7077 7.325 17.7077H12.675C14.425 17.7077 14.4583 17.2327 14.5417 15.966L15.0833 7.57433C15.1083 7.23266 15.4083 6.97433 15.75 6.991C16.0917 7.016 16.3583 7.30766 16.3333 7.65766L15.7917 16.0493C15.7 17.3493 15.5833 18.9577 12.675 18.9577Z" fill="#1D1B20"/>
<path d="M11.3834 14.375H8.6084C8.26673 14.375 7.9834 14.0917 7.9834 13.75C7.9834 13.4083 8.26673 13.125 8.6084 13.125H11.3834C11.7251 13.125 12.0084 13.4083 12.0084 13.75C12.0084 14.0917 11.7251 14.375 11.3834 14.375Z" fill="#1D1B20"/>
<path d="M12.0832 11.041H7.9165C7.57484 11.041 7.2915 10.7577 7.2915 10.416C7.2915 10.0743 7.57484 9.79102 7.9165 9.79102H12.0832C12.4248 9.79102 12.7082 10.0743 12.7082 10.416C12.7082 10.7577 12.4248 11.041 12.0832 11.041Z" fill="#1D1B20"/>
</svg>
