<svg width="24" height="24" viewBox="0 0 24 24" fill="none" xmlns="http://www.w3.org/2000/svg">
<path d="M12 22H17C20 22 22 20 22 17V12C22 9.3 20.3 7.3 17.8 7C17.6 7 17.3 7 17 7H7C6.7 7 6.5 6.99998 6.2 7.09998C3.6 7.39998 2 9.3 2 12C2 12.3 2 12.7 2 13" stroke="#605D64" stroke-width="1.5" stroke-linecap="round" stroke-linejoin="round"/>
<path d="M17.8002 6.99922C17.6002 6.99922 17.3002 6.99922 17.0002 6.99922H7.0002C6.7002 6.99922 6.5002 6.99919 6.2002 7.09919C6.3002 6.79919 6.5002 6.59921 6.8002 6.29921L10.0002 2.99922C11.4002 1.59922 13.6002 1.59922 15.0002 2.99922L16.8002 4.79921C17.4002 5.39921 17.7002 6.19922 17.8002 6.99922Z" stroke="#605D64" stroke-width="1.5" stroke-linecap="round" stroke-linejoin="round"/>
<path d="M22 12.5H19C17.9 12.5 17 13.4 17 14.5C17 15.6 17.9 16.5 19 16.5H22" stroke="#605D64" stroke-width="1.5" stroke-linecap="round" stroke-linejoin="round"/>
<path d="M5.80157 21.4C7.57157 21.4 9.00156 19.97 9.00156 18.2C9.00156 16.43 7.57157 15 5.80157 15C4.03157 15 2.60156 16.43 2.60156 18.2C2.60156 19.97 4.03157 21.4 5.80157 21.4Z" stroke="#605D64" stroke-width="1.5" stroke-linecap="round" stroke-linejoin="round"/>
<path d="M2 22L3 21" stroke="#605D64" stroke-width="1.5" stroke-linecap="round" stroke-linejoin="round"/>
</svg>
